<mxfile host="app.diagrams.net" modified="2024-03-05T11:37:59.213Z" agent="Mozilla/5.0 (Windows NT 10.0; Win64; x64) AppleWebKit/537.36 (KHTML, like Gecko) Chrome/122.0.0.0 Safari/537.36" etag="KiKxhzSaGb-vdbK-ILWZ" version="24.0.1" type="github">
  <diagram name="Page-1" id="Tudqk-DjMucI3pCJKous">
    <mxGraphModel dx="1372" dy="1655" grid="1" gridSize="10" guides="1" tooltips="1" connect="1" arrows="1" fold="1" page="1" pageScale="1" pageWidth="850" pageHeight="1100" math="0" shadow="0">
      <root>
        <mxCell id="0" />
        <mxCell id="1" parent="0" />
        <mxCell id="Wal1Ezd5G8xtFQs5gzl8-3" value="" style="edgeStyle=orthogonalEdgeStyle;rounded=0;orthogonalLoop=1;jettySize=auto;html=1;" edge="1" parent="1" source="Wal1Ezd5G8xtFQs5gzl8-1" target="Wal1Ezd5G8xtFQs5gzl8-2">
          <mxGeometry relative="1" as="geometry" />
        </mxCell>
        <mxCell id="Wal1Ezd5G8xtFQs5gzl8-5" value="" style="edgeStyle=orthogonalEdgeStyle;rounded=0;orthogonalLoop=1;jettySize=auto;html=1;" edge="1" parent="1" source="Wal1Ezd5G8xtFQs5gzl8-1" target="Wal1Ezd5G8xtFQs5gzl8-4">
          <mxGeometry relative="1" as="geometry" />
        </mxCell>
        <mxCell id="Wal1Ezd5G8xtFQs5gzl8-7" value="" style="edgeStyle=orthogonalEdgeStyle;rounded=0;orthogonalLoop=1;jettySize=auto;html=1;" edge="1" parent="1" source="Wal1Ezd5G8xtFQs5gzl8-1" target="Wal1Ezd5G8xtFQs5gzl8-6">
          <mxGeometry relative="1" as="geometry" />
        </mxCell>
        <mxCell id="Wal1Ezd5G8xtFQs5gzl8-12" value="" style="edgeStyle=orthogonalEdgeStyle;rounded=0;orthogonalLoop=1;jettySize=auto;html=1;" edge="1" parent="1" source="Wal1Ezd5G8xtFQs5gzl8-1" target="Wal1Ezd5G8xtFQs5gzl8-2">
          <mxGeometry relative="1" as="geometry" />
        </mxCell>
        <mxCell id="Wal1Ezd5G8xtFQs5gzl8-14" value="" style="edgeStyle=orthogonalEdgeStyle;rounded=0;orthogonalLoop=1;jettySize=auto;html=1;" edge="1" parent="1" source="Wal1Ezd5G8xtFQs5gzl8-1" target="Wal1Ezd5G8xtFQs5gzl8-13">
          <mxGeometry relative="1" as="geometry" />
        </mxCell>
        <mxCell id="Wal1Ezd5G8xtFQs5gzl8-17" style="edgeStyle=orthogonalEdgeStyle;rounded=0;orthogonalLoop=1;jettySize=auto;html=1;exitX=0;exitY=0.25;exitDx=0;exitDy=0;" edge="1" parent="1" source="Wal1Ezd5G8xtFQs5gzl8-1" target="Wal1Ezd5G8xtFQs5gzl8-15">
          <mxGeometry relative="1" as="geometry" />
        </mxCell>
        <mxCell id="Wal1Ezd5G8xtFQs5gzl8-20" style="edgeStyle=orthogonalEdgeStyle;rounded=0;orthogonalLoop=1;jettySize=auto;html=1;exitX=1;exitY=0.25;exitDx=0;exitDy=0;entryX=0.5;entryY=1;entryDx=0;entryDy=0;" edge="1" parent="1" source="Wal1Ezd5G8xtFQs5gzl8-1" target="Wal1Ezd5G8xtFQs5gzl8-19">
          <mxGeometry relative="1" as="geometry" />
        </mxCell>
        <mxCell id="Wal1Ezd5G8xtFQs5gzl8-1" value="" style="rounded=0;whiteSpace=wrap;html=1;" vertex="1" parent="1">
          <mxGeometry x="210" y="260" width="120" height="60" as="geometry" />
        </mxCell>
        <mxCell id="Wal1Ezd5G8xtFQs5gzl8-9" value="" style="edgeStyle=orthogonalEdgeStyle;rounded=0;orthogonalLoop=1;jettySize=auto;html=1;" edge="1" parent="1" source="Wal1Ezd5G8xtFQs5gzl8-2" target="Wal1Ezd5G8xtFQs5gzl8-8">
          <mxGeometry relative="1" as="geometry" />
        </mxCell>
        <mxCell id="Wal1Ezd5G8xtFQs5gzl8-11" value="" style="edgeStyle=orthogonalEdgeStyle;rounded=0;orthogonalLoop=1;jettySize=auto;html=1;" edge="1" parent="1" source="Wal1Ezd5G8xtFQs5gzl8-2" target="Wal1Ezd5G8xtFQs5gzl8-10">
          <mxGeometry relative="1" as="geometry" />
        </mxCell>
        <mxCell id="Wal1Ezd5G8xtFQs5gzl8-2" value="" style="ellipse;whiteSpace=wrap;html=1;rounded=0;" vertex="1" parent="1">
          <mxGeometry x="20" y="250" width="80" height="80" as="geometry" />
        </mxCell>
        <mxCell id="Wal1Ezd5G8xtFQs5gzl8-4" value="" style="ellipse;whiteSpace=wrap;html=1;rounded=0;" vertex="1" parent="1">
          <mxGeometry x="230" y="390" width="80" height="80" as="geometry" />
        </mxCell>
        <mxCell id="Wal1Ezd5G8xtFQs5gzl8-6" value="" style="ellipse;whiteSpace=wrap;html=1;rounded=0;" vertex="1" parent="1">
          <mxGeometry x="430" y="250" width="80" height="80" as="geometry" />
        </mxCell>
        <mxCell id="Wal1Ezd5G8xtFQs5gzl8-8" value="" style="ellipse;whiteSpace=wrap;html=1;rounded=0;" vertex="1" parent="1">
          <mxGeometry x="30" y="410" width="80" height="80" as="geometry" />
        </mxCell>
        <mxCell id="Wal1Ezd5G8xtFQs5gzl8-10" value="" style="ellipse;whiteSpace=wrap;html=1;rounded=0;" vertex="1" parent="1">
          <mxGeometry x="-130" y="250" width="80" height="80" as="geometry" />
        </mxCell>
        <mxCell id="Wal1Ezd5G8xtFQs5gzl8-13" value="" style="rhombus;whiteSpace=wrap;html=1;rounded=0;" vertex="1" parent="1">
          <mxGeometry x="230" y="110" width="80" height="80" as="geometry" />
        </mxCell>
        <mxCell id="Wal1Ezd5G8xtFQs5gzl8-40" style="edgeStyle=orthogonalEdgeStyle;rounded=0;orthogonalLoop=1;jettySize=auto;html=1;entryX=0.5;entryY=1;entryDx=0;entryDy=0;" edge="1" parent="1" source="Wal1Ezd5G8xtFQs5gzl8-15" target="Wal1Ezd5G8xtFQs5gzl8-39">
          <mxGeometry relative="1" as="geometry" />
        </mxCell>
        <mxCell id="Wal1Ezd5G8xtFQs5gzl8-15" value="" style="rhombus;whiteSpace=wrap;html=1;" vertex="1" parent="1">
          <mxGeometry x="70" y="110" width="80" height="80" as="geometry" />
        </mxCell>
        <mxCell id="Wal1Ezd5G8xtFQs5gzl8-22" value="" style="edgeStyle=orthogonalEdgeStyle;rounded=0;orthogonalLoop=1;jettySize=auto;html=1;" edge="1" parent="1" source="Wal1Ezd5G8xtFQs5gzl8-19" target="Wal1Ezd5G8xtFQs5gzl8-21">
          <mxGeometry relative="1" as="geometry" />
        </mxCell>
        <mxCell id="Wal1Ezd5G8xtFQs5gzl8-24" value="" style="edgeStyle=orthogonalEdgeStyle;rounded=0;orthogonalLoop=1;jettySize=auto;html=1;" edge="1" parent="1" source="Wal1Ezd5G8xtFQs5gzl8-19" target="Wal1Ezd5G8xtFQs5gzl8-23">
          <mxGeometry relative="1" as="geometry" />
        </mxCell>
        <mxCell id="Wal1Ezd5G8xtFQs5gzl8-19" value="" style="rhombus;whiteSpace=wrap;html=1;" vertex="1" parent="1">
          <mxGeometry x="380" y="120" width="80" height="80" as="geometry" />
        </mxCell>
        <mxCell id="Wal1Ezd5G8xtFQs5gzl8-21" value="" style="ellipse;whiteSpace=wrap;html=1;" vertex="1" parent="1">
          <mxGeometry x="540" y="120" width="80" height="80" as="geometry" />
        </mxCell>
        <mxCell id="Wal1Ezd5G8xtFQs5gzl8-29" value="" style="edgeStyle=orthogonalEdgeStyle;rounded=0;orthogonalLoop=1;jettySize=auto;html=1;" edge="1" parent="1" source="Wal1Ezd5G8xtFQs5gzl8-23" target="Wal1Ezd5G8xtFQs5gzl8-28">
          <mxGeometry relative="1" as="geometry" />
        </mxCell>
        <mxCell id="Wal1Ezd5G8xtFQs5gzl8-23" value="" style="whiteSpace=wrap;html=1;" vertex="1" parent="1">
          <mxGeometry x="360" y="-30" width="120" height="60" as="geometry" />
        </mxCell>
        <mxCell id="Wal1Ezd5G8xtFQs5gzl8-26" style="edgeStyle=orthogonalEdgeStyle;rounded=0;orthogonalLoop=1;jettySize=auto;html=1;entryX=1;entryY=0.75;entryDx=0;entryDy=0;exitX=0.5;exitY=1;exitDx=0;exitDy=0;" edge="1" parent="1" source="Wal1Ezd5G8xtFQs5gzl8-25" target="Wal1Ezd5G8xtFQs5gzl8-23">
          <mxGeometry relative="1" as="geometry" />
        </mxCell>
        <mxCell id="Wal1Ezd5G8xtFQs5gzl8-27" style="edgeStyle=orthogonalEdgeStyle;rounded=0;orthogonalLoop=1;jettySize=auto;html=1;entryX=1;entryY=0.25;entryDx=0;entryDy=0;" edge="1" parent="1" target="Wal1Ezd5G8xtFQs5gzl8-23">
          <mxGeometry relative="1" as="geometry">
            <mxPoint x="620" y="-30" as="sourcePoint" />
            <mxPoint x="520" y="-60" as="targetPoint" />
            <Array as="points">
              <mxPoint x="620" y="-29" />
              <mxPoint x="521" y="-29" />
              <mxPoint x="521" y="-15" />
            </Array>
          </mxGeometry>
        </mxCell>
        <mxCell id="Wal1Ezd5G8xtFQs5gzl8-25" value="" style="rhombus;whiteSpace=wrap;html=1;" vertex="1" parent="1">
          <mxGeometry x="580" y="-40" width="80" height="80" as="geometry" />
        </mxCell>
        <mxCell id="Wal1Ezd5G8xtFQs5gzl8-28" value="" style="ellipse;whiteSpace=wrap;html=1;" vertex="1" parent="1">
          <mxGeometry x="380" y="-240" width="80" height="80" as="geometry" />
        </mxCell>
        <mxCell id="Wal1Ezd5G8xtFQs5gzl8-38" style="edgeStyle=orthogonalEdgeStyle;rounded=0;orthogonalLoop=1;jettySize=auto;html=1;entryX=0;entryY=0;entryDx=0;entryDy=0;" edge="1" parent="1" source="Wal1Ezd5G8xtFQs5gzl8-31" target="Wal1Ezd5G8xtFQs5gzl8-23">
          <mxGeometry relative="1" as="geometry">
            <mxPoint x="360" y="-40" as="targetPoint" />
          </mxGeometry>
        </mxCell>
        <mxCell id="Wal1Ezd5G8xtFQs5gzl8-31" value="" style="ellipse;whiteSpace=wrap;html=1;aspect=fixed;" vertex="1" parent="1">
          <mxGeometry x="160" y="-120" width="80" height="80" as="geometry" />
        </mxCell>
        <mxCell id="Wal1Ezd5G8xtFQs5gzl8-36" style="edgeStyle=orthogonalEdgeStyle;rounded=0;orthogonalLoop=1;jettySize=auto;html=1;entryX=1;entryY=0;entryDx=0;entryDy=0;" edge="1" parent="1" source="Wal1Ezd5G8xtFQs5gzl8-32" target="Wal1Ezd5G8xtFQs5gzl8-23">
          <mxGeometry relative="1" as="geometry" />
        </mxCell>
        <mxCell id="Wal1Ezd5G8xtFQs5gzl8-32" value="" style="ellipse;whiteSpace=wrap;html=1;aspect=fixed;" vertex="1" parent="1">
          <mxGeometry x="600" y="-170" width="80" height="80" as="geometry" />
        </mxCell>
        <mxCell id="Wal1Ezd5G8xtFQs5gzl8-37" style="edgeStyle=orthogonalEdgeStyle;rounded=0;orthogonalLoop=1;jettySize=auto;html=1;entryX=0.25;entryY=0;entryDx=0;entryDy=0;" edge="1" parent="1" source="Wal1Ezd5G8xtFQs5gzl8-33" target="Wal1Ezd5G8xtFQs5gzl8-23">
          <mxGeometry relative="1" as="geometry" />
        </mxCell>
        <mxCell id="Wal1Ezd5G8xtFQs5gzl8-33" value="" style="ellipse;whiteSpace=wrap;html=1;aspect=fixed;" vertex="1" parent="1">
          <mxGeometry x="250" y="-200" width="80" height="80" as="geometry" />
        </mxCell>
        <mxCell id="Wal1Ezd5G8xtFQs5gzl8-35" style="edgeStyle=orthogonalEdgeStyle;rounded=0;orthogonalLoop=1;jettySize=auto;html=1;entryX=0.75;entryY=0;entryDx=0;entryDy=0;exitX=0;exitY=0.5;exitDx=0;exitDy=0;" edge="1" parent="1" source="Wal1Ezd5G8xtFQs5gzl8-34" target="Wal1Ezd5G8xtFQs5gzl8-23">
          <mxGeometry relative="1" as="geometry">
            <Array as="points">
              <mxPoint x="510" y="-150" />
              <mxPoint x="450" y="-150" />
            </Array>
          </mxGeometry>
        </mxCell>
        <mxCell id="Wal1Ezd5G8xtFQs5gzl8-34" value="" style="ellipse;whiteSpace=wrap;html=1;aspect=fixed;" vertex="1" parent="1">
          <mxGeometry x="510" y="-220" width="80" height="80" as="geometry" />
        </mxCell>
        <mxCell id="Wal1Ezd5G8xtFQs5gzl8-39" value="" style="rounded=0;whiteSpace=wrap;html=1;" vertex="1" parent="1">
          <mxGeometry y="-10" width="120" height="60" as="geometry" />
        </mxCell>
        <mxCell id="Wal1Ezd5G8xtFQs5gzl8-41" value="" style="shape=link;html=1;rounded=0;entryX=0.5;entryY=0;entryDx=0;entryDy=0;exitX=1;exitY=0.5;exitDx=0;exitDy=0;" edge="1" parent="1" source="Wal1Ezd5G8xtFQs5gzl8-39" target="Wal1Ezd5G8xtFQs5gzl8-13">
          <mxGeometry width="100" relative="1" as="geometry">
            <mxPoint x="150" y="40" as="sourcePoint" />
            <mxPoint x="250" y="40" as="targetPoint" />
            <Array as="points">
              <mxPoint x="270" y="20" />
            </Array>
          </mxGeometry>
        </mxCell>
        <mxCell id="Wal1Ezd5G8xtFQs5gzl8-49" style="edgeStyle=orthogonalEdgeStyle;rounded=0;orthogonalLoop=1;jettySize=auto;html=1;entryX=0;entryY=0.25;entryDx=0;entryDy=0;" edge="1" parent="1" source="Wal1Ezd5G8xtFQs5gzl8-42" target="Wal1Ezd5G8xtFQs5gzl8-39">
          <mxGeometry relative="1" as="geometry" />
        </mxCell>
        <mxCell id="Wal1Ezd5G8xtFQs5gzl8-42" value="" style="ellipse;whiteSpace=wrap;html=1;aspect=fixed;" vertex="1" parent="1">
          <mxGeometry x="-140" y="-100" width="80" height="80" as="geometry" />
        </mxCell>
        <mxCell id="Wal1Ezd5G8xtFQs5gzl8-48" style="edgeStyle=orthogonalEdgeStyle;rounded=0;orthogonalLoop=1;jettySize=auto;html=1;entryX=0.25;entryY=0;entryDx=0;entryDy=0;" edge="1" parent="1" source="Wal1Ezd5G8xtFQs5gzl8-43" target="Wal1Ezd5G8xtFQs5gzl8-39">
          <mxGeometry relative="1" as="geometry">
            <Array as="points">
              <mxPoint x="-30" y="-190" />
              <mxPoint x="-30" y="-80" />
              <mxPoint x="20" y="-80" />
              <mxPoint x="20" y="-10" />
            </Array>
          </mxGeometry>
        </mxCell>
        <mxCell id="Wal1Ezd5G8xtFQs5gzl8-43" value="" style="ellipse;whiteSpace=wrap;html=1;aspect=fixed;" vertex="1" parent="1">
          <mxGeometry x="-120" y="-230" width="80" height="80" as="geometry" />
        </mxCell>
        <mxCell id="Wal1Ezd5G8xtFQs5gzl8-47" style="edgeStyle=orthogonalEdgeStyle;rounded=0;orthogonalLoop=1;jettySize=auto;html=1;entryX=0.5;entryY=0;entryDx=0;entryDy=0;" edge="1" parent="1" source="Wal1Ezd5G8xtFQs5gzl8-44" target="Wal1Ezd5G8xtFQs5gzl8-39">
          <mxGeometry relative="1" as="geometry" />
        </mxCell>
        <mxCell id="Wal1Ezd5G8xtFQs5gzl8-44" value="" style="ellipse;whiteSpace=wrap;html=1;aspect=fixed;" vertex="1" parent="1">
          <mxGeometry x="-10" y="-230" width="80" height="80" as="geometry" />
        </mxCell>
        <mxCell id="Wal1Ezd5G8xtFQs5gzl8-46" style="edgeStyle=orthogonalEdgeStyle;rounded=0;orthogonalLoop=1;jettySize=auto;html=1;entryX=0.75;entryY=0;entryDx=0;entryDy=0;" edge="1" parent="1" source="Wal1Ezd5G8xtFQs5gzl8-45" target="Wal1Ezd5G8xtFQs5gzl8-39">
          <mxGeometry relative="1" as="geometry" />
        </mxCell>
        <mxCell id="Wal1Ezd5G8xtFQs5gzl8-45" value="" style="ellipse;whiteSpace=wrap;html=1;aspect=fixed;" vertex="1" parent="1">
          <mxGeometry x="90" y="-230" width="80" height="80" as="geometry" />
        </mxCell>
      </root>
    </mxGraphModel>
  </diagram>
</mxfile>
